<svg width="361" height="951" viewBox="0 0 361 951" fill="none" xmlns="http://www.w3.org/2000/svg">
<path d="M170 3C160.864 3 152.041 5.44013 143.056 7.05556C122.068 10.8287 99.1924 13.2919 80.6667 24.7778C71.357 30.5498 64.96 41.2872 58 49.5C48.7461 60.4196 39.2086 71.0419 30.5556 82.4444C23.0108 92.3867 13 101.768 13 115C13 124.639 18.1654 134.099 23.2222 142C39.7424 167.813 63.5291 186.071 89.5556 201.556C107.559 212.267 125.879 221.711 144.778 230.778C156.406 236.357 167.685 242.52 179.111 248.5C204.092 261.574 230.269 272.976 253.944 288.389C297.679 316.861 349.095 351.783 357 407.556C360.027 428.911 355.288 450.448 341 466.778C331.246 477.925 317.448 485.679 306.056 495C292.587 506.02 279.575 516.192 264.833 525.556C245.602 537.77 225.155 546.466 203.778 554.222C181.783 562.203 160.927 571.036 140 581.5C108.483 597.258 77.094 613.971 50.9445 638C38.6873 649.263 25.055 659.299 18.2222 675C13.1294 686.703 7.60984 698.301 5.55558 711C3.33839 724.706 0.944645 739.429 5.7778 752.778C9.76176 763.781 13.789 771.983 22.2222 780.222C52.005 809.32 85.3166 834.225 123 852C151.963 865.662 180.052 881.023 208.889 894.944C227.239 903.803 246.174 911.138 264.333 920.389C272.015 924.302 277.14 929.249 282.444 936C284.082 938.084 289.645 948.677 291 948" stroke="#CD4A4C" stroke-width="5" stroke-linecap="round"/>
</svg>
